<svg width="12" height="12" viewBox="0 0 12 12" fill="none" xmlns="http://www.w3.org/2000/svg">
<circle cx="6" cy="6" r="6" fill="#F99698" fill-opacity="0.2"/>
<path d="M5.09628 9H6.90371C7.28188 9 7.46352 8.87307 7.65706 8.65325L8.75284 7.39009C8.94938 7.16409 9 7.01548 9 6.70897V5.29411C9 4.98452 8.94938 4.839 8.75284 4.613L7.65706 3.34984C7.46352 3.13002 7.28188 3 6.90371 3H5.09628C4.71811 3 4.53945 3.13002 4.34293 3.34984L3.24714 4.613C3.05062 4.839 3 4.98452 3 5.29411V6.70897C3 7.01548 3.05062 7.16409 3.24714 7.39009L4.34293 8.65325C4.53945 8.87307 4.71811 9 5.09628 9ZM5.25707 8.50464C4.95931 8.50464 4.87593 8.43654 4.70918 8.25077L3.69678 7.08979C3.57766 6.95356 3.55086 6.87616 3.55086 6.65015V5.35293C3.55086 5.12693 3.57766 5.04954 3.69678 4.91331L4.70918 3.75232C4.87593 3.56347 4.95931 3.49845 5.25707 3.49845H6.74292C7.04068 3.49845 7.12406 3.56347 7.29081 3.75232L8.3062 4.91331C8.42232 5.04954 8.44915 5.12693 8.44915 5.35293V6.65015C8.44915 6.87616 8.42232 6.95356 8.3062 7.08979L7.29081 8.25077C7.12406 8.43654 7.04068 8.50464 6.74292 8.50464H5.25707ZM4.98312 7.30959C5.04863 7.30959 5.10818 7.28173 5.15285 7.2322L5.9985 6.35293L6.84416 7.2322C6.88882 7.27864 6.9454 7.30959 7.01389 7.30959C7.14788 7.30959 7.25508 7.19505 7.25508 7.05882C7.25508 6.98762 7.22828 6.93189 7.18064 6.88236L6.33499 6.00309L7.18362 5.11764C7.23424 5.065 7.25806 5.01238 7.25806 4.94427C7.25806 4.80495 7.15087 4.69659 7.01687 4.69659C6.95434 4.69659 6.90371 4.72136 6.8531 4.77399L5.9985 5.65634L5.14689 4.77709C5.10222 4.72754 5.04863 4.70279 4.98312 4.70279C4.84912 4.70279 4.74193 4.80805 4.74193 4.94736C4.74193 5.01548 4.76874 5.0743 4.81637 5.12074L5.66203 6.00309L4.81637 6.88545C4.76874 6.93189 4.74193 6.99071 4.74193 7.05882C4.74193 7.19505 4.84912 7.30959 4.98312 7.30959Z" fill="#F80004"/>
</svg>
