<svg width="24" height="24" viewBox="0 0 24 24" fill="none" xmlns="http://www.w3.org/2000/svg">
<path d="M18.6917 7.81986L23.1371 5.45958C22.9596 5.29412 22.7467 5.16179 22.4867 5.02941L14.1518 0.595624C13.4188 0.209553 12.7094 0 12 0C11.2907 0 10.5813 0.209553 9.84828 0.595624L7.44828 1.864L18.6917 7.81986ZM12 11.3603L17.0483 8.6912L5.85225 2.72428L1.5133 5.02941C1.25322 5.16179 1.0404 5.29412 0.863037 5.45958L12 11.3603ZM12.804 24C12.8867 23.978 12.9577 23.9448 13.0404 23.9008L22.2976 18.9816C23.3971 18.3971 24 17.8015 24 16.2022V7.61031C24 7.27944 23.9646 7.01473 23.9056 6.77205L12.804 12.6839V24ZM11.1961 24V12.6839L0.0945815 6.77205C0.0354618 7.01473 0 7.27944 0 7.61031V16.2022C0 17.8015 0.602951 18.3971 1.70247 18.9816L10.9596 23.9008C11.0424 23.9448 11.1133 23.978 11.1961 24Z" fill="#43AAFF"/>
</svg>
