<svg height="56" viewBox="0 0 56 56" width="56" xmlns="http://www.w3.org/2000/svg"><path d="m24 48c-13.254834 0-24-10.745166-24-24s10.745166-24 24-24 24 10.745166 24 24-10.745166 24-24 24zm10.7878169-32.0693259c-.6694702-.6694702-1.7548958-.6694702-2.4243661 0l-10.9348794 10.9348794c-.6694702.6694702-1.7548959.6694702-2.4243661 0l-3.2205937-3.2205937c-.6694702-.6694702-1.7548959-.6694702-2.4243661 0s-.6694702 1.7548959 0 2.4243661l5.6449598 5.6449598c.6694702.6694702 1.7548959.6694702 2.4243661 0l13.3592455-13.3592455c.6694703-.6694702.6694703-1.7548959 0-2.4243661z" fill-rule="evenodd" transform="translate(4 4)"/></svg>