<svg width="24" height="24" viewBox="0 0 24 24" fill="none" xmlns="http://www.w3.org/2000/svg">
<path fill-rule="evenodd" clip-rule="evenodd" d="M12 24C5.37258 24 0 18.6274 0 12C0 5.37258 5.37258 0 12 0C18.6274 0 24 5.37258 24 12C24 18.6274 18.6274 24 12 24ZM17.3939 7.96534C17.0592 7.6306 16.5165 7.6306 16.1817 7.96534L10.7143 13.4328C10.3796 13.7675 9.83684 13.7675 9.5021 13.4328L7.89181 11.8225C7.55707 11.4877 7.01436 11.4877 6.67962 11.8225C6.34489 12.1572 6.34489 12.6999 6.67962 13.0347L9.5021 15.8571C9.83684 16.1919 10.3796 16.1919 10.7143 15.8571L17.3939 9.17752C17.7286 8.84278 17.7286 8.30007 17.3939 7.96534Z" fill="#43AAFF"/>
</svg>
