<svg width="10" height="12" viewBox="0 0 10 12" fill="none" xmlns="http://www.w3.org/2000/svg">
<path d="M8.71838 10.7329L9.0823 2.88321H9.60972C9.82598 2.88321 10 2.70066 10 2.48053C10 2.26041 9.82598 2.07249 9.60972 2.07249H7.30486V1.2671C7.30486 0.499332 6.79326 0 5.98104 0H4.00845C3.1962 0 2.68987 0.499332 2.68987 1.2671V2.07249H0.395568C0.184597 2.07249 0 2.26041 0 2.48053C0 2.70066 0.184597 2.88321 0.395568 2.88321H0.923006L1.28691 10.7383C1.32384 11.5114 1.8249 12 2.5844 12H7.42091C8.17514 12 8.68147 11.506 8.71838 10.7329ZM3.53376 1.3208C3.53376 1.01477 3.75528 0.800003 4.07175 0.800003H5.92301C6.24474 0.800003 6.46627 1.01477 6.46627 1.3208V2.07249H3.53376V1.3208ZM2.66352 11.1946C2.35761 11.1946 2.1308 10.9584 2.11497 10.647L1.74578 2.88321H8.23842L7.89031 10.647C7.87449 10.9638 7.65297 11.1946 7.34179 11.1946H2.66352ZM6.56647 10.2497C6.74052 10.2497 6.87239 10.1047 6.87765 9.90066L7.03588 4.23086C7.04116 4.02684 6.90403 3.87652 6.7247 3.87652C6.56121 3.87652 6.42407 4.03222 6.4188 4.2255L6.26056 9.90066C6.25529 10.094 6.38714 10.2497 6.56647 10.2497ZM3.43884 10.2497C3.61817 10.2497 3.75002 10.094 3.74473 9.90066L3.58651 4.2255C3.58124 4.03222 3.43884 3.87652 3.27533 3.87652C3.096 3.87652 2.96415 4.02684 2.96941 4.23086L3.13292 9.90066C3.13819 10.1047 3.26477 10.2497 3.43884 10.2497ZM5.32176 9.90066V4.2255C5.32176 4.03222 5.17933 3.87652 5.00529 3.87652C4.83122 3.87652 4.68355 4.03222 4.68355 4.2255V9.90066C4.68355 10.094 4.83122 10.2497 5.00529 10.2497C5.17407 10.2497 5.32176 10.094 5.32176 9.90066Z" fill="black"/>
</svg>
