<svg width="35" height="35" viewBox="0 0 35 35" fill="none" xmlns="http://www.w3.org/2000/svg">
<path d="M35 17.5C35 27.165 27.165 35 17.5 35C7.83502 35 0 27.165 0 17.5C0 7.83502 7.83502 0 17.5 0C27.165 0 35 7.83502 35 17.5Z" fill="#FAFAFA"/>
<path fill-rule="evenodd" clip-rule="evenodd" d="M15.5393 5C15.4383 5.00003 15.339 5.02669 15.2516 5.07726C15.1642 5.12784 15.0918 5.20054 15.0416 5.288L13.0755 8.71657C13.026 8.80289 13 8.90059 13 9C13 9.09941 13.026 9.19711 13.0755 9.28343L15.0416 12.712C15.0918 12.7995 15.1642 12.8722 15.2516 12.9227C15.339 12.9733 15.4383 13 15.5393 13H19.4613C19.5623 13 19.6616 12.9733 19.749 12.9227C19.8364 12.8722 19.9088 12.7995 19.9589 12.712L21.9245 9.28343C21.974 9.19711 22 9.09941 22 9C22 8.90059 21.974 8.80289 21.9245 8.71657L19.9589 5.288C19.9088 5.20054 19.8364 5.12784 19.749 5.07726C19.6616 5.02669 19.5623 5.00003 19.4613 5H15.5393ZM18.4165 10.5406C18.6138 10.4288 18.7868 10.2793 18.9258 10.1006C19.0648 9.92197 19.167 9.71765 19.2264 9.49947C19.2858 9.28129 19.3014 9.05355 19.2722 8.82935C19.2429 8.60516 19.1695 8.38894 19.056 8.19315C18.9426 7.99736 18.7914 7.82587 18.6112 7.68854C18.431 7.55121 18.2253 7.45076 18.006 7.39297C17.7867 7.33519 17.5581 7.3212 17.3333 7.35183C17.1086 7.38246 16.8921 7.45709 16.6964 7.57143C16.3045 7.80037 16.0195 8.17449 15.9034 8.61214C15.7873 9.04979 15.8496 9.51544 16.0767 9.90748C16.3038 10.2995 16.6773 10.5861 17.1157 10.7047C17.554 10.8233 18.0217 10.7643 18.4165 10.5406Z" fill="#202020"/>
<path d="M16.15 18.75V17.25L17.5 15L18.85 17.25L16.15 18.75ZM15.25 26.775L16.15 26.25V27H18.85V24.75L19.75 24.225V23.475L15.25 25.95V26.775ZM15.25 23.775L16.15 23.25V24.75L18.85 23.25V21.75L19.75 21.225V20.475L15.25 22.95V23.775ZM15.25 20.775L16.15 20.25V21.75L18.85 20.25V18.75L19.75 18.225V17.475L15.25 19.95V20.775ZM21.1 30C21.1 30 22 30 22 29.25L19.3 27.75H15.7L13 29.25C13 29.25 13 30 13.9 30C14.8 30 21.1 30 21.1 30Z" fill="#202020"/>
</svg>
