<svg width="158" height="23" viewBox="0 0 158 23" fill="none" xmlns="http://www.w3.org/2000/svg">
<path d="M17.75 15.7012C17.75 16.5703 17.584 17.3857 17.252 18.1475C16.9199 18.9092 16.4658 19.5781 15.8896 20.1543C15.3232 20.7207 14.6592 21.1699 13.8975 21.502C13.1357 21.834 12.3203 22 11.4512 22H0.948242V0.994141H11.4512C12.3203 0.994141 13.1357 1.16016 13.8975 1.49219C14.6592 1.82422 15.3232 2.27832 15.8896 2.85449C16.4658 3.4209 16.9199 4.08496 17.252 4.84668C17.584 5.6084 17.75 6.42383 17.75 7.29297C17.75 7.68359 17.6963 8.08398 17.5889 8.49414C17.4814 8.9043 17.3301 9.2998 17.1348 9.68066C16.9395 10.0615 16.7051 10.4082 16.4316 10.7207C16.1582 11.0332 15.8555 11.292 15.5234 11.4971C15.8652 11.6826 16.1729 11.9365 16.4463 12.2588C16.7197 12.5713 16.9541 12.918 17.1494 13.2988C17.3447 13.6797 17.4912 14.0801 17.5889 14.5C17.6963 14.9102 17.75 15.3105 17.75 15.7012ZM5.15234 17.7959H11.4512C11.7441 17.7959 12.0176 17.7422 12.2715 17.6348C12.5254 17.5273 12.7451 17.3809 12.9307 17.1953C13.126 17 13.2773 16.7754 13.3848 16.5215C13.4922 16.2676 13.5459 15.9941 13.5459 15.7012C13.5459 15.4082 13.4922 15.1348 13.3848 14.8809C13.2773 14.627 13.126 14.4072 12.9307 14.2217C12.7451 14.0264 12.5254 13.875 12.2715 13.7676C12.0176 13.6602 11.7441 13.6064 11.4512 13.6064H5.15234V17.7959ZM5.15234 9.40234H11.4512C11.7441 9.40234 12.0176 9.34863 12.2715 9.24121C12.5254 9.13379 12.7451 8.9873 12.9307 8.80176C13.126 8.60645 13.2773 8.38184 13.3848 8.12793C13.4922 7.86426 13.5459 7.58594 13.5459 7.29297C13.5459 7 13.4922 6.72656 13.3848 6.47266C13.2773 6.21875 13.126 5.99902 12.9307 5.81348C12.7451 5.61816 12.5254 5.4668 12.2715 5.35938C12.0176 5.25195 11.7441 5.19824 11.4512 5.19824H5.15234V9.40234Z" fill="#202020"/>
<path d="M36.7783 22C35.8115 22 34.9033 21.8193 34.0537 21.458C33.2041 21.0869 32.457 20.584 31.8125 19.9492C31.1777 19.3047 30.6748 18.5576 30.3037 17.708C29.9424 16.8584 29.7617 15.9502 29.7617 14.9834V10.3252H27.8135V6.34082H29.7617V0.0712891H33.7461V6.34082H39.8105V10.3252H33.7461V14.9834C33.7461 15.4033 33.8242 15.7988 33.9805 16.1699C34.1367 16.5312 34.3516 16.8486 34.625 17.1221C34.8984 17.3955 35.2207 17.6152 35.5918 17.7812C35.9629 17.9375 36.3584 18.0156 36.7783 18.0156H39.8105V22H36.7783Z" fill="#202020"/>
<path d="M50.6797 22H41.5391V18.0156H50.6797C50.9531 18.0156 51.1875 17.918 51.3828 17.7227C51.5781 17.5273 51.6758 17.293 51.6758 17.0195C51.6758 16.7363 51.5781 16.5508 51.3828 16.4629C51.1875 16.375 50.9531 16.3311 50.6797 16.3311H46.5195C45.8262 16.3311 45.1768 16.1992 44.5713 15.9355C43.9658 15.6719 43.4385 15.3154 42.9893 14.8662C42.54 14.4072 42.1836 13.875 41.9199 13.2695C41.666 12.6641 41.5391 12.0146 41.5391 11.3213C41.5391 10.6279 41.666 9.97852 41.9199 9.37305C42.1836 8.76758 42.54 8.24023 42.9893 7.79102C43.4385 7.3418 43.9658 6.99023 44.5713 6.73633C45.1768 6.47266 45.8262 6.34082 46.5195 6.34082H54.6201V10.3252H46.5195C46.2461 10.3252 46.0117 10.4229 45.8164 10.6182C45.6211 10.8135 45.5234 11.0479 45.5234 11.3213C45.5234 11.6045 45.6211 11.8486 45.8164 12.0537C46.0117 12.249 46.2461 12.3467 46.5195 12.3467H50.6797C51.3633 12.3467 52.0078 12.4639 52.6133 12.6982C53.2188 12.9229 53.7461 13.2402 54.1953 13.6504C54.6445 14.0605 55.001 14.5537 55.2646 15.1299C55.5283 15.7061 55.6602 16.3359 55.6602 17.0195C55.6602 17.7129 55.5283 18.3623 55.2646 18.9678C55.001 19.5635 54.6445 20.0908 54.1953 20.5498C53.7461 20.999 53.2188 21.3555 52.6133 21.6191C52.0078 21.873 51.3633 22 50.6797 22Z" fill="#202020"/>
<path d="M74.2197 3.64551H77.4277V6.82422H71.2168C71.002 6.82422 70.7969 6.86816 70.6016 6.95605C70.416 7.03418 70.25 7.14648 70.1035 7.29297C69.957 7.43945 69.8398 7.61035 69.752 7.80566C69.6738 7.99121 69.6348 8.19141 69.6348 8.40625C69.6348 8.63086 69.6738 8.8457 69.752 9.05078C69.8398 9.24609 69.957 9.41699 70.1035 9.56348C70.25 9.70996 70.416 9.82715 70.6016 9.91504C70.7969 9.99316 71.002 10.0322 71.2168 10.0322H75.04V13.2109H71.2168C71.002 13.2109 70.7969 13.2549 70.6016 13.3428C70.416 13.4209 70.25 13.5332 70.1035 13.6797C69.957 13.8262 69.8398 13.9971 69.752 14.1924C69.6738 14.3779 69.6348 14.5781 69.6348 14.793C69.6348 15.0176 69.6738 15.2324 69.752 15.4375C69.8398 15.6328 69.957 15.8037 70.1035 15.9502C70.25 16.0967 70.416 16.2139 70.6016 16.3018C70.7969 16.3799 71.002 16.4189 71.2168 16.4189H77.4277V19.5977H74.2197V22H71.5244V19.5977H71.2168C70.5527 19.5977 69.9326 19.4756 69.3564 19.2314C68.7803 18.9775 68.2773 18.6357 67.8477 18.2061C67.418 17.7666 67.0762 17.2588 66.8223 16.6826C66.5781 16.0967 66.4561 15.4668 66.4561 14.793C66.4561 14.207 66.5586 13.6406 66.7637 13.0938C66.9688 12.5469 67.2764 12.0537 67.6865 11.6143C67.2764 11.1748 66.9688 10.6816 66.7637 10.1348C66.5586 9.58789 66.4561 9.01172 66.4561 8.40625C66.4561 7.75195 66.5781 7.13672 66.8223 6.56055C67.0762 5.97461 67.418 5.4668 67.8477 5.03711C68.2773 4.60742 68.7803 4.27051 69.3564 4.02637C69.9326 3.77246 70.5527 3.64551 71.2168 3.64551H71.5244V0.964844H74.2197V3.64551Z" fill="#202020"/>
<path d="M106.432 15.7012C106.432 16.5703 106.266 17.3857 105.934 18.1475C105.602 18.9092 105.147 19.5781 104.571 20.1543C104.005 20.7207 103.341 21.1699 102.579 21.502C101.817 21.834 101.002 22 100.133 22H89.6299V0.994141H100.133C101.002 0.994141 101.817 1.16016 102.579 1.49219C103.341 1.82422 104.005 2.27832 104.571 2.85449C105.147 3.4209 105.602 4.08496 105.934 4.84668C106.266 5.6084 106.432 6.42383 106.432 7.29297C106.432 7.68359 106.378 8.08398 106.271 8.49414C106.163 8.9043 106.012 9.2998 105.816 9.68066C105.621 10.0615 105.387 10.4082 105.113 10.7207C104.84 11.0332 104.537 11.292 104.205 11.4971C104.547 11.6826 104.854 11.9365 105.128 12.2588C105.401 12.5713 105.636 12.918 105.831 13.2988C106.026 13.6797 106.173 14.0801 106.271 14.5C106.378 14.9102 106.432 15.3105 106.432 15.7012ZM93.834 17.7959H100.133C100.426 17.7959 100.699 17.7422 100.953 17.6348C101.207 17.5273 101.427 17.3809 101.612 17.1953C101.808 17 101.959 16.7754 102.066 16.5215C102.174 16.2676 102.228 15.9941 102.228 15.7012C102.228 15.4082 102.174 15.1348 102.066 14.8809C101.959 14.627 101.808 14.4072 101.612 14.2217C101.427 14.0264 101.207 13.875 100.953 13.7676C100.699 13.6602 100.426 13.6064 100.133 13.6064H93.834V17.7959ZM93.834 9.40234H100.133C100.426 9.40234 100.699 9.34863 100.953 9.24121C101.207 9.13379 101.427 8.9873 101.612 8.80176C101.808 8.60645 101.959 8.38184 102.066 8.12793C102.174 7.86426 102.228 7.58594 102.228 7.29297C102.228 7 102.174 6.72656 102.066 6.47266C101.959 6.21875 101.808 5.99902 101.612 5.81348C101.427 5.61816 101.207 5.4668 100.953 5.35938C100.699 5.25195 100.426 5.19824 100.133 5.19824H93.834V9.40234Z" fill="#202020"/>
<path d="M141.705 14.0166C141.705 15.2471 141.495 16.3701 141.075 17.3857C140.655 18.4014 140.084 19.2754 139.361 20.0078C138.639 20.7305 137.789 21.292 136.812 21.6924C135.846 22.0928 134.806 22.293 133.692 22.293C132.589 22.293 131.549 22.0879 130.572 21.6777C129.605 21.2676 128.756 20.6963 128.023 19.9639C127.301 19.2314 126.729 18.3623 126.31 17.3564C125.89 16.3408 125.68 15.2275 125.68 14.0166V0.0712891H129.693V7.39551C129.908 7.12207 130.167 6.87793 130.47 6.66309C130.782 6.44824 131.114 6.27246 131.466 6.13574C131.827 5.99902 132.198 5.89648 132.579 5.82812C132.96 5.75 133.331 5.71094 133.692 5.71094C134.806 5.71094 135.846 5.9209 136.812 6.34082C137.789 6.75098 138.639 7.32715 139.361 8.06934C140.084 8.81152 140.655 9.69043 141.075 10.7061C141.495 11.7119 141.705 12.8154 141.705 14.0166ZM137.677 14.0166C137.677 13.4111 137.569 12.8496 137.354 12.332C137.149 11.8047 136.866 11.3506 136.505 10.9697C136.144 10.5889 135.719 10.291 135.23 10.0762C134.752 9.86133 134.239 9.75391 133.692 9.75391C133.146 9.75391 132.628 9.87598 132.14 10.1201C131.661 10.3545 131.241 10.6719 130.88 11.0723C130.519 11.4629 130.235 11.917 130.03 12.4346C129.825 12.9424 129.723 13.4697 129.723 14.0166C129.723 14.6221 129.825 15.1836 130.03 15.7012C130.235 16.2188 130.519 16.668 130.88 17.0488C131.241 17.4297 131.661 17.7324 132.14 17.957C132.628 18.1719 133.146 18.2793 133.692 18.2793C134.239 18.2793 134.752 18.1719 135.23 17.957C135.719 17.7324 136.144 17.4297 136.505 17.0488C136.866 16.668 137.149 16.2188 137.354 15.7012C137.569 15.1836 137.677 14.6221 137.677 14.0166Z" fill="#202020"/>
<path d="M152.545 22H143.404V18.0156H152.545C152.818 18.0156 153.053 17.918 153.248 17.7227C153.443 17.5273 153.541 17.293 153.541 17.0195C153.541 16.7363 153.443 16.5508 153.248 16.4629C153.053 16.375 152.818 16.3311 152.545 16.3311H148.385C147.691 16.3311 147.042 16.1992 146.437 15.9355C145.831 15.6719 145.304 15.3154 144.854 14.8662C144.405 14.4072 144.049 13.875 143.785 13.2695C143.531 12.6641 143.404 12.0146 143.404 11.3213C143.404 10.6279 143.531 9.97852 143.785 9.37305C144.049 8.76758 144.405 8.24023 144.854 7.79102C145.304 7.3418 145.831 6.99023 146.437 6.73633C147.042 6.47266 147.691 6.34082 148.385 6.34082H156.485V10.3252H148.385C148.111 10.3252 147.877 10.4229 147.682 10.6182C147.486 10.8135 147.389 11.0479 147.389 11.3213C147.389 11.6045 147.486 11.8486 147.682 12.0537C147.877 12.249 148.111 12.3467 148.385 12.3467H152.545C153.229 12.3467 153.873 12.4639 154.479 12.6982C155.084 12.9229 155.611 13.2402 156.061 13.6504C156.51 14.0605 156.866 14.5537 157.13 15.1299C157.394 15.7061 157.525 16.3359 157.525 17.0195C157.525 17.7129 157.394 18.3623 157.13 18.9678C156.866 19.5635 156.51 20.0908 156.061 20.5498C155.611 20.999 155.084 21.3555 154.479 21.6191C153.873 21.873 153.229 22 152.545 22Z" fill="#202020"/>
<path fill-rule="evenodd" clip-rule="evenodd" d="M21.6929 0C21.6255 2.4366e-05 21.5593 0.0200154 21.5011 0.0579476C21.4428 0.0958798 21.3945 0.150405 21.3611 0.216L20.0503 2.78743C20.0174 2.85217 20 2.92544 20 3C20 3.07456 20.0174 3.14783 20.0503 3.21257L21.3611 5.784C21.3945 5.8496 21.4428 5.90412 21.5011 5.94205C21.5593 5.97998 21.6255 5.99998 21.6929 6H24.3075C24.3749 5.99998 24.4411 5.97998 24.4993 5.94205C24.5576 5.90412 24.6059 5.8496 24.6393 5.784L25.9497 3.21257C25.9826 3.14783 26 3.07456 26 3C26 2.92544 25.9826 2.85217 25.9497 2.78743L24.6393 0.216C24.6059 0.150405 24.5576 0.0958798 24.4993 0.0579476C24.4411 0.0200154 24.3749 2.4366e-05 24.3075 0H21.6929ZM23.611 4.15543C23.7425 4.07162 23.8579 3.95949 23.9506 3.82548C24.0432 3.69147 24.1113 3.53824 24.1509 3.3746C24.1906 3.21097 24.2009 3.04016 24.1814 2.87201C24.1619 2.70387 24.113 2.54171 24.0374 2.39486C23.9617 2.24802 23.861 2.1194 23.7408 2.0164C23.6207 1.91341 23.4836 1.83807 23.3374 1.79473C23.1911 1.75139 23.0387 1.7409 22.8889 1.76387C22.739 1.78684 22.5947 1.84282 22.4643 1.92857C22.203 2.10028 22.013 2.38087 21.9356 2.70911C21.8582 3.03734 21.8997 3.38658 22.0511 3.68061C22.2025 3.97463 22.4515 4.18958 22.7438 4.27853C23.036 4.36749 23.3478 4.32324 23.611 4.15543Z" fill="#202020"/>
<path d="M21.95 10.75V9.25L23 7L24.05 9.25L21.95 10.75ZM21.25 18.775L21.95 18.25V19H24.05V16.75L24.75 16.225V15.475L21.25 17.95V18.775ZM21.25 15.775L21.95 15.25V16.75L24.05 15.25V13.75L24.75 13.225V12.475L21.25 14.95V15.775ZM21.25 12.775L21.95 12.25V13.75L24.05 12.25V10.75L24.75 10.225V9.475L21.25 11.95V12.775ZM25.8 22C25.8 22 26.5 22 26.5 21.25L24.4 19.75H21.6L19.5 21.25C19.5 21.25 19.5 22 20.2 22C20.9 22 25.8 22 25.8 22Z" fill="#202020"/>
<path d="M123 17.325C123 17.648 122.825 17.9285 122.558 18.073L115.975 21.847C115.842 21.949 115.675 22 115.5 22C115.325 22 115.158 21.949 115.025 21.847L108.442 18.073C108.175 17.9285 108 17.648 108 17.325V9.675C108 9.352 108.175 9.0715 108.442 8.927L115.025 5.153C115.158 5.051 115.325 5 115.5 5C115.675 5 115.842 5.051 115.975 5.153L122.558 8.927C122.825 9.0715 123 9.352 123 9.675V17.325ZM115.5 9.25C114.395 9.25 113.335 9.69777 112.554 10.4948C111.772 11.2918 111.333 12.3728 111.333 13.5C111.333 14.6272 111.772 15.7082 112.554 16.5052C113.335 17.3022 114.395 17.75 115.5 17.75C116.605 17.75 117.665 17.3022 118.446 16.5052C119.228 15.7082 119.667 14.6272 119.667 13.5C119.667 12.3728 119.228 11.2918 118.446 10.4948C117.665 9.69777 116.605 9.25 115.5 9.25Z" fill="#202020"/>
</svg>
