<svg width="24" height="24" viewBox="0 0 24 24" fill="none" xmlns="http://www.w3.org/2000/svg">
<path d="M9.80136 19.4171C11.9171 19.4171 13.8927 18.7354 15.4987 17.5991L21.5401 23.5833C21.8205 23.8611 22.1901 24 22.5725 24C23.4009 24 24 23.3687 24 22.5607C24 22.182 23.8726 21.8285 23.592 21.5508L17.5889 15.5917C18.8507 13.9506 19.6027 11.9179 19.6027 9.70858C19.6027 4.36823 15.1927 0 9.80136 0C4.39722 0 0 4.36823 0 9.70858C0 15.0489 4.39722 19.4171 9.80136 19.4171ZM9.80136 17.3214C5.58257 17.3214 2.11576 13.8748 2.11576 9.70858C2.11576 5.54235 5.58257 2.09577 9.80136 2.09577C14.0074 2.09577 17.487 5.54235 17.487 9.70858C17.487 13.8748 14.0074 17.3214 9.80136 17.3214Z" fill="#43AAFF"/>
</svg>
