<svg width="12" height="12" viewBox="0 0 12 12" fill="none" xmlns="http://www.w3.org/2000/svg">
<circle cx="6" cy="6" r="6" fill="#D0F6E9"/>
<path d="M6 3C7.65685 3 9 4.34315 9 6C9 7.65685 7.65685 9 6 9C4.34315 9 3 7.65685 3 6C3 4.34315 4.34315 3 6 3ZM6 3.5C4.61929 3.5 3.5 4.61929 3.5 6C3.5 7.38071 4.61929 8.5 6 8.5C7.38071 8.5 8.5 7.38071 8.5 6C8.5 4.61929 7.38071 3.5 6 3.5ZM7.34848 4.99133C7.43216 5.07502 7.43216 5.2107 7.34848 5.29438L5.67857 6.96429C5.59489 7.04797 5.45921 7.04797 5.37553 6.96429L4.66991 6.25867C4.58622 6.17498 4.58622 6.0393 4.66991 5.95562C4.75359 5.87194 4.88927 5.87194 4.97295 5.95562L5.37553 6.35819C5.45921 6.44188 5.59489 6.44188 5.67857 6.35819L7.04543 4.99133C7.12911 4.90765 7.26479 4.90765 7.34848 4.99133Z" fill="#45B052"/>
</svg>
