<svg width="24" height="22" viewBox="0 0 24 22" fill="none" xmlns="http://www.w3.org/2000/svg">
<path d="M3.16783 22H20.8321C22.7833 22 24 20.5836 24 18.7958C24 18.2617 23.8622 17.7161 23.5753 17.2169L14.7259 1.62531C14.1291 0.568847 13.0846 0 12.0057 0C10.9382 0 9.88232 0.568847 9.274 1.62531L0.424682 17.2285C0.137708 17.7277 0 18.2617 0 18.7958C0 20.5836 1.22811 22 3.16783 22ZM3.19079 20.1773C2.38736 20.1773 1.8594 19.5156 1.8594 18.7958C1.8594 18.5868 1.89383 18.343 2.00862 18.0992L10.8464 2.50761C11.0989 2.06646 11.5581 1.85752 12.0057 1.85752C12.4533 1.85752 12.8895 2.05487 13.142 2.50761L21.9799 18.1108C22.0946 18.343 22.152 18.5868 22.152 18.7958C22.152 19.5156 21.6009 20.1773 20.8091 20.1773H3.19079ZM12.0057 14.1752C12.5566 14.1752 12.878 13.8501 12.8895 13.2465L13.0501 7.12823C13.0616 6.53615 12.6025 6.09495 11.9942 6.09495C11.3744 6.09495 10.9382 6.52451 10.9498 7.11659L11.0989 13.2465C11.1104 13.8385 11.4318 14.1752 12.0057 14.1752ZM12.0057 17.9483C12.6714 17.9483 13.2453 17.4142 13.2453 16.7409C13.2453 16.0559 12.6829 15.5335 12.0057 15.5335C11.3285 15.5335 10.7661 16.0676 10.7661 16.7409C10.7661 17.4027 11.34 17.9483 12.0057 17.9483Z" fill="#43AAFF"/>
</svg>
