<svg width="12" height="12" viewBox="0 0 12 12" fill="none" xmlns="http://www.w3.org/2000/svg">
<circle cx="6" cy="6" r="6" fill="#FCE49C" fill-opacity="0.3"/>
<path d="M3.79196 8H8.20802C8.69582 8 9 7.6781 9 7.27177C9 7.15039 8.96556 7.02639 8.89382 6.91293L6.68148 3.36939C6.53227 3.12928 6.27114 3 6.00142 3C5.73456 3 5.47058 3.12928 5.3185 3.36939L3.10617 6.91557C3.03443 7.02902 3 7.15039 3 7.27177C3 7.6781 3.30703 8 3.79196 8ZM3.7977 7.58575C3.59684 7.58575 3.46485 7.43536 3.46485 7.27177C3.46485 7.22428 3.47346 7.16887 3.50215 7.11346L5.71161 3.56991C5.77473 3.46965 5.88952 3.42216 6.00142 3.42216C6.11333 3.42216 6.22237 3.46701 6.28549 3.56991L8.49497 7.1161C8.52364 7.16887 8.53799 7.22428 8.53799 7.27177C8.53799 7.43536 8.40023 7.58575 8.20228 7.58575H3.7977ZM6.00142 6.22163C6.13915 6.22163 6.2195 6.14776 6.22237 6.01056L6.26254 4.62005C6.2654 4.48549 6.15064 4.38522 5.99856 4.38522C5.8436 4.38522 5.73456 4.48284 5.73744 4.61741L5.77473 6.01056C5.77761 6.14512 5.85796 6.22163 6.00142 6.22163ZM6.00142 7.07915C6.16785 7.07915 6.31132 6.95778 6.31132 6.80475C6.31132 6.64907 6.17071 6.53034 6.00142 6.53034C5.83213 6.53034 5.69153 6.65172 5.69153 6.80475C5.69153 6.95515 5.83499 7.07915 6.00142 7.07915Z" fill="#FFC107"/>
</svg>
